<?xml version="1.0" encoding="utf-8"?>
<svg version="1.1" xmlns="http://www.w3.org/2000/svg" xmlns:xlink="http://www.w3.org/1999/xlink" height="22.363999999999976" width="31.601">
  <defs>
    <path id="path-0" opacity="1" fill-rule="evenodd" d="M21.204999999999885,0.44399999999999995 C20.775999999999886,0 20.061999999999884,0 19.617999999999885,0.44399999999999995 C19.188999999999886,0.8730000000000001 19.188999999999886,1.5869999999999997 19.617999999999885,2.0149999999999997 L27.664999999999885,10.062000000000001 L1.1109999999998863,10.062000000000001 C0.4919999999998865,10.062999999999999 -1.1368683772161603e-13,10.555 -1.1368683772161603e-13,11.174 C-1.1368683772161603e-13,11.793000000000003 0.4919999999998865,12.301000000000002 1.1109999999998863,12.301000000000002 L27.664999999999885,12.301000000000002 L19.617999999999885,20.333000000000002 C19.188999999999886,20.777 19.188999999999886,21.492 19.617999999999885,21.92 C20.061999999999884,22.364 20.776999999999884,22.364 21.204999999999885,21.92 L31.156999999999883,11.968 C31.600999999999882,11.539000000000001 31.600999999999882,10.825 31.156999999999883,10.396999999999998 L21.204999999999885,0.44399999999999995Z"/>
  </defs>
  <g transform="translate(15.800499999999886, 11.181999999999988) rotate(180.00006436155007) translate(-15.800499999999886, -11.181999999999988)" opacity="1">
    <g opacity="1">
      <use xlink:href="#path-0" fill="rgb(30,32,29)" fill-opacity="1"/>
    </g>
  </g>
</svg>