<?xml version="1.0" encoding="utf-8"?>
<svg version="1.1" xmlns="http://www.w3.org/2000/svg" xmlns:xlink="http://www.w3.org/1999/xlink" height="52.40926021895689" width="69.40926021895689">
  <defs>
    <path id="path-0" opacity="1" fill-rule="evenodd" d="M4.704630109478444,4.704630109478444 L4.704630109478444,47.704630109478444 L64.70463010947844,47.704630109478444 L64.70463010947844,4.704630109478444 L4.704630109478444,4.704630109478444 M41.329630109478444,26.76862547080657 L35.883585187603444,32.240640851665944 C35.221597882915944,32.855631086040944 34.185587140728444,32.85462400596282 33.551614972759694,32.266641828228444 L28.078592511822194,26.76862547080657 L28.126627179790944,26.72162840049407 L8.351602765728444,6.704630109478444 L61.070596906353444,6.704630109478444 L41.281595441509694,26.722635480572194 L41.329630109478444,26.76862547080657 M62.704630109478444,8.126627179790944 L44.181619855572194,26.738626691509694 L62.704630109478444,44.559610578228444 L62.704630109478444,8.126627179790944 M6.704630109478444,44.55964109580657 L25.228616925884694,26.737650129009694 L6.704630109478444,8.127634259869069 L6.704630109478444,44.55964109580657 M26.638590070415944,28.154642316509694 L32.161600324322194,33.703653546978444 C32.870584699322194,34.36463377158782 33.780618879009694,34.696634504009694 34.694620343853444,34.696634504009694 C35.617593976665944,34.696634504009694 36.544595929790944,34.357645246197194 37.275613996197194,33.67664549033782 L42.771585675884694,28.154642316509694 L61.008585187603444,45.704630109478444 L8.390604230572194,45.704630109478444 L26.638590070415944,28.154642316509694 "/>
    <mask id="mask-1" maskUnits="userSpaceOnUse" maskContentUnits="userSpaceOnUse">
      <rect opacity="1" x="0" y="0" width="69.40926021895689" height="52.40926021895689" fill="white"/>
      <use xlink:href="#path-0" fill="black"/>
    </mask>
  </defs>
  <g opacity="1">
    <use xlink:href="#path-0" fill="rgb(63,191,130)" fill-opacity="1"/>
    <use xlink:href="#path-0" fill-opacity="0" stroke="rgb(63,191,130)" stroke-opacity="1" stroke-width="2" stroke-linecap="butt" stroke-linejoin="miter" mask="url(#mask-1)"/>
  </g>
</svg>