<?xml version="1.0" encoding="utf-8"?>
<svg version="1.1" xmlns="http://www.w3.org/2000/svg" xmlns:xlink="http://www.w3.org/1999/xlink" height="26" width="26">
  <defs>
    <path id="path-0" opacity="1" fill-rule="evenodd" d="M17.252371788024902,13.70900809764862 C19.091158866882324,14.343519568443298 20.77648639678955,15.391694903373718 22.19242286682129,16.807578682899475 C24.64774465560913,19.263004302978533 26,22.527577877044678 26,26 L23.96875,26 C23.96875,19.951799392700213 19.048200607299805,15.03125 13,15.03125 C6.95180094242096,15.03125 2.03125,19.951799392700213 2.03125,26 L0,26 C0,22.527577877044678 1.352253794670105,19.263004302978533 3.8076298236846924,16.807578682899475 C5.223563194274902,15.391694903373718 6.908890724182129,14.343519568443298 8.74767780303955,13.70900809764862 C6.778230667114258,12.352590203285217 5.484375,10.082515835762033 5.484375,7.515625 C5.484375,3.3715198040008545 8.855894804000854,0 13,0 C17.144105195999146,0 20.515625,3.3715198040008545 20.515625,7.515625 C20.515625,10.082515835762033 19.221769332885742,12.352590203285217 17.252371788024902,13.70900809764862 L17.252371788024902,13.70900809764862ZM7.515625,7.515625 C7.515625,10.539750099182129 9.975924491882324,13 13,13 C16.024075508117676,13 18.484375,10.539750099182129 18.484375,7.515625 C18.484375,4.491499900817871 16.024075508117676,2.03125 13,2.03125 C9.975924491882324,2.03125 7.515625,4.491499900817871 7.515625,7.515625 L7.515625,7.515625Z"/>
  </defs>
  <g opacity="1">
    <g opacity="1">
      <use xlink:href="#path-0" fill="rgb(0,0,0)" fill-opacity="1"/>
    </g>
  </g>
</svg>