<?xml version="1.0" encoding="utf-8"?>
<svg version="1.1" xmlns="http://www.w3.org/2000/svg" xmlns:xlink="http://www.w3.org/1999/xlink" height="22.047000125885035" width="31.012">
  <defs>
    <path id="path-1" opacity="1" fill-rule="evenodd" d="M25.109000000000016,17.028000125885 C24.986000000000015,17.028000125885 24.863000000000017,16.983000125885 24.767000000000017,16.892000125885 L19.01300000000002,11.494000125885002 C18.81200000000002,11.306000125885001 18.80200000000002,10.989000125885001 18.99100000000002,10.788000125885002 C19.18000000000002,10.585000125885003 19.495000000000022,10.576000125885002 19.69800000000002,10.766000125885002 L25.45200000000002,16.164000125885 C25.65300000000002,16.352000125885 25.663000000000018,16.669000125885 25.474000000000018,16.870000125885 "/>
    <path id="path-2" opacity="1" fill-rule="evenodd" d="M5.9020000000000135,17.028000125885015 C5.7690000000000135,17.028000125885015 5.636000000000013,16.97500012588501 5.537000000000013,16.870000125885014 C5.348000000000013,16.669000125885013 5.358000000000013,16.352000125885013 5.5590000000000135,16.16400012588501 L11.315000000000015,10.766000125885013 C11.517000000000014,10.578000125885012 11.834000000000014,10.586000125885013 12.022000000000016,10.788000125885013 C12.211000000000016,10.989000125885013 12.201000000000015,11.306000125885014 12.000000000000014,11.494000125885012 L6.244000000000015,16.892000125885012 "/>
    <path id="path-3" opacity="1" fill-rule="evenodd" d="M2.5,22.0469970703125 L28.511993408203125,22.0469970703125 L31.011993408203125,19.5469970703125 L31.011993408203125,2.5 C31.011993408203125,1.121002197265625 29.889999389648438,0 28.511993408203125,0 L2.5,0 C1.1219940185546875,0 0,1.121002197265625 0,2.5 L0,19.5469970703125 C0,20.925994873046875 1.1219940185546875,22.0469970703125 2.5,22.0469970703125 L1,2.5 C1,1.6729965209960938 1.673004150390625,1 2.5,1 L28.511993408203125,1 C29.339004516601562,1 30.011993408203125,1.6729965209960938 30.011993408203125,2.5 L30.011993408203125,19.5469970703125 C30.011993408203125,20.373992919921875 29.339004516601562,21.0469970703125 28.511993408203125,21.0469970703125 L2.5,21.0469970703125 C1.673004150390625,21.0469970703125 1,20.373992919921875 1,19.5469970703125 L1,2.5 L2.5,22.0469970703125Z"/>
    <path id="path-4" opacity="1" fill-rule="evenodd" d="M15.505999999999995,13.53600012588502 C14.840999999999996,13.53600012588502 14.175999999999995,13.31500012588502 13.669999999999995,12.87400012588502 L0.8299999999999943,1.673000125885019 C0.6219999999999944,1.4920001258850188 0.5999999999999943,1.176000125885019 0.7809999999999945,0.9670001258850185 C0.9639999999999944,0.7590001258850183 1.2789999999999944,0.7400001258850182 1.4869999999999943,0.9190001258850184 L14.326999999999995,12.119000125885018 C14.965999999999994,12.676000125885016 16.045999999999992,12.676000125885016 16.683999999999994,12.119000125885018 L29.507999999999992,0.9370001258850182 C29.714999999999993,0.7560001258850182 30.02999999999999,0.7760001258850187 30.21399999999999,0.9850001258850183 C30.394999999999992,1.194000125885018 30.37399999999999,1.5090001258850183 30.165999999999993,1.6910001258850187 L17.34199999999999,12.873000125885019 "/>
  </defs>
  <g opacity="1">
    <g opacity="1">
      <use xlink:href="#path-1" fill="rgb(255,255,255)" fill-opacity="1"/>
    </g>
    <g opacity="1">
      <use xlink:href="#path-2" fill="rgb(255,255,255)" fill-opacity="1"/>
    </g>
    <g opacity="1">
      <use xlink:href="#path-3" fill="rgb(255,255,255)" fill-opacity="1"/>
    </g>
    <g opacity="1">
      <use xlink:href="#path-4" fill="rgb(255,255,255)" fill-opacity="1"/>
    </g>
  </g>
</svg>