<?xml version="1.0" encoding="utf-8"?>
<svg version="1.1" xmlns="http://www.w3.org/2000/svg" xmlns:xlink="http://www.w3.org/1999/xlink" height="486.3919677734375" width="486.3919677734375">
  <defs>
    <path id="path-0" opacity="1" fill-rule="evenodd" d="M0,243.19598388671875 C0,108.8909912109375 108.8909912109375,0 243.19598388671875,0 C377.5009765625,0 486.3919677734375,108.86099243164062 486.3919677734375,243.19598388671875 C486.3919677734375,377.5010070800781 377.5009765625,486.3919677734375 243.19598388671875,486.3919677734375 C108.8909912109375,486.3919677734375 0,377.5010070800781 0,243.19598388671875 L0,243.19598388671875ZM266.2080078125,243.19500732421875 L306.06201171875,243.16500854492188 L311.3809814453125,192.885009765625 L266.14703369140625,192.885009765625 L266.2080078125,167.7139892578125 C266.2080078125,154.61199951171875 267.1199951171875,147.58999633789062 285.93701171875,147.58999633789062 L311.1080322265625,147.58999633789062 L311.1080322265625,97.27900695800781 L270.8590087890625,97.27900695800781 C222.55401611328125,97.27900695800781 211.427978515625,122.23699951171875 211.427978515625,163.2760009765625 L211.489013671875,192.885009765625 L175.010009765625,192.91500854492188 L175.010009765625,243.19601440429688 L211.489013671875,243.19601440429688 L211.489013671875,389.11199951171875 L266.177978515625,389.11199951171875 L266.2080078125,243.19500732421875 L266.2080078125,243.19500732421875Z"/>
  </defs>
  <g opacity="1">
    <g opacity="1">
      <use xlink:href="#path-0" fill="rgb(255,255,255)" fill-opacity="1"/>
    </g>
  </g>
</svg>