<?xml version="1.0" encoding="utf-8"?>
<svg version="1.1" xmlns="http://www.w3.org/2000/svg" xmlns:xlink="http://www.w3.org/1999/xlink" height="486.3919677734375" width="486.3919677734375">
  <defs>
    <path id="path-0" opacity="1" fill-rule="evenodd" d="M243.19598388671875,0 C108.8909912109375,0 0,108.8909912109375 0,243.19598388671875 C0,377.5010070800781 108.8909912109375,486.3919677734375 243.19598388671875,486.3919677734375 C377.5009765625,486.3919677734375 486.3919677734375,377.5010070800781 486.3919677734375,243.19598388671875 C486.3919677734375,108.86099243164062 377.5009765625,0 243.19598388671875,0 L243.19598388671875,0ZM175.343994140625,406.83599853515625 C121.50701904296875,406.83599853515625 76.08999633789062,384.91796875 76.08999633789062,349.89801025390625 C76.08999633789062,314.3609924316406 117.52398681640625,280.03997802734375 171.36199951171875,280.07000732421875 L188.1729736328125,279.9179992675781 C180.81597900390625,272.77398681640625 174.97998046875,263.989013671875 174.97998046875,253.135986328125 C174.97998046875,246.69097900390625 177.0469970703125,240.52001953125 179.905029296875,235.01800537109375 L170.93701171875,235.32199096679688 C126.70599365234375,235.32199096679688 97.09698486328125,203.8590087890625 97.09698486328125,164.85598754882812 C97.09698486328125,126.70500183105469 137.9840087890625,93.78199768066406 181.45599365234375,93.78199768066406 L278.42999267578125,93.78199768066406 L256.66400146484375,109.46800231933594 L225.92999267578125,109.46800231933594 C246.3280029296875,117.31100463867188 257.1810302734375,141.08299255371094 257.1810302734375,165.4639892578125 C257.1810302734375,185.92300415039062 245.84197998046875,203.55499267578125 229.82098388671875,216.0789794921875 C214.16497802734375,228.33001708984375 211.21697998046875,233.43701171875 211.21697998046875,243.833984375 C211.21697998046875,252.71099853515625 227.99798583984375,267.78900146484375 236.75299072265625,274.02099609375 C262.3800048828125,292.13897705078125 270.61798095703125,308.95001220703125 270.61798095703125,337.0090026855469 C270.615966796875,372.02899169921875 236.72100830078125,406.83599853515625 175.343994140625,406.83599853515625 L175.343994140625,406.83599853515625ZM364.79400634765625,274.0820007324219 L364.79400634765625,213.3740234375 L425.593017578125,213.3740234375 L425.593017578125,182.39700317382812 L364.79400634765625,182.39700317382812 L364.79400634765625,121.59800720214844 L334.42498779296875,121.59800720214844 L334.42498779296875,182.39700317382812 L273.59600830078125,182.39700317382812 L273.59600830078125,213.3740234375 L334.42498779296875,213.3740234375 L334.42498779296875,274.0820007324219 L364.79400634765625,274.0820007324219 L364.79400634765625,274.0820007324219Z"/>
    <path id="path-1" opacity="1" fill-rule="evenodd" d="M205.774,293.021 C198.41700000000003,290.65000000000003 190.301,289.221 181.637,289.13 C144.428,288.735 111.11000000000001,311.808 111.11000000000001,339.563 C111.11000000000001,367.895 137.983,391.424 175.192,391.424 C227.50900000000001,391.424 245.719,369.293 245.719,341.022 C245.719,337.617 245.293,334.27299999999997 244.53300000000002,331.021 C240.45999999999998,314.969 225.959,307.035 205.774,293.021Z"/>
    <path id="path-2" opacity="1" fill-rule="evenodd" d="M222.34199999999996,167.349 C218.02499999999995,134.57799999999997 194.28299999999996,108.252 169.32499999999996,107.492 C144.36699999999996,106.762 127.61699999999996,131.84199999999998 131.93399999999997,164.673 C136.25099999999998,197.474 159.99299999999997,224.68200000000002 184.98099999999997,225.411 C209.90799999999996,226.17200000000003 226.68899999999996,200.18100000000004 222.34199999999996,167.349Z"/>
  </defs>
  <g opacity="1">
    <g opacity="1">
      <use xlink:href="#path-0" fill="rgb(255,255,255)" fill-opacity="1"/>
    </g>
    <g opacity="1">
      <use xlink:href="#path-1" fill="rgb(255,255,255)" fill-opacity="1"/>
    </g>
    <g opacity="1">
      <use xlink:href="#path-2" fill="rgb(255,255,255)" fill-opacity="1"/>
    </g>
  </g>
</svg>