<?xml version="1.0" encoding="utf-8"?>
<svg version="1.1" xmlns="http://www.w3.org/2000/svg" xmlns:xlink="http://www.w3.org/1999/xlink" height="62.704630109478444" width="44.70463010947856">
  <defs>
    <path id="path-0" opacity="1" fill-rule="evenodd" d="M18.35231505473928,36.35231505473922 C18.35231505473928,34.14632140239547 20.14632140239553,32.35231505473922 22.35231505473928,32.35231505473922 C24.55830870708303,32.35231505473922 26.35231505473928,34.14632140239547 26.35231505473928,36.35231505473922 L26.35231505473928,42.35231505473922 C26.35231505473928,44.55830870708297 24.55830870708303,46.35231505473922 22.35231505473928,46.35231505473922 C20.14632140239553,46.35231505473922 18.35231505473928,44.55830870708297 18.35231505473928,42.35231505473922 L18.35231505473928,36.35231505473922 L18.35231505473928,36.35231505473922ZM22.35231505473928,44.35231505473922 C23.45534239848928,44.35231505473922 24.35231505473928,43.4553118809111 24.35231505473928,42.35231505473922 L24.35231505473928,36.35231505473922 C24.35231505473928,35.24931822856735 23.45534239848928,34.35231505473922 22.35231505473928,34.35231505473922 C21.24928771098928,34.35231505473922 20.35231505473928,35.24931822856735 20.35231505473928,36.35231505473922 L20.35231505473928,42.35231505473922 C20.35231505473928,43.4553118809111 21.24928771098928,44.35231505473922 22.35231505473928,44.35231505473922 L22.35231505473928,44.35231505473922Z"/>
    <mask id="mask-1" maskUnits="userSpaceOnUse" maskContentUnits="userSpaceOnUse">
      <rect opacity="1" x="0" y="0" width="44.70463010947856" height="62.704630109478444" fill="white"/>
      <use xlink:href="#path-0" fill="black"/>
    </mask>
    <path id="path-2" opacity="1" fill-rule="evenodd" d="M33.35231505473928,23.666310416067347 L33.35231505473928,12.572316275442347 C33.35231505473928,6.937306509817347 28.41731749614553,2.352315054739222 22.35231505473928,2.352315054739222 C16.28731261333303,2.352315054739222 11.352315054739279,6.937306509817347 11.352315054739279,12.572316275442347 L11.352315054739279,23.666310416067347 C5.936299429739279,27.248311148489222 2.352315054739279,33.38631163677047 2.352315054739279,40.35231505473922 C2.352315054739279,51.38033019145797 11.324299918020529,60.35231505473922 22.35231505473928,60.35231505473922 C33.38033019145803,60.35231505473922 42.35231505473928,51.38033019145797 42.35231505473928,40.35231505473922 C42.35231505473928,33.38631163677047 38.76833067973928,27.248311148489222 33.35231505473928,23.666310416067347 L33.35231505473928,23.666310416067347ZM13.352315054739279,22.509327994192347 L13.352315054739279,12.572316275442347 C13.352315054739279,8.040303335989222 17.38930235942678,4.352315054739222 22.35231505473928,4.352315054739222 C27.31532775005178,4.352315054739222 31.35231505473928,8.040303335989222 31.35231505473928,12.572316275442347 L31.35231505473928,22.510304556692347 C31.16432677348928,22.415303335989222 30.97231017192678,22.331318960989222 30.78230773052053,22.242329703176722 C30.38930235942678,22.058308707082972 29.99031554302053,21.886311636770472 29.58430968364553,21.727315054739222 C29.32332335552053,21.625325308645472 29.06129942973928,21.529317007864222 28.79732237895803,21.438313589895472 C28.53731261333303,21.349324332082972 28.27931700786428,21.260304556692347 28.01533995708303,21.182301627004847 C27.57832823833303,21.052327261770472 27.13631163677053,20.941304312551722 26.69130431255178,20.841328726614222 C26.49831114848928,20.798298941457972 26.30434142192678,20.757313834036097 26.10933409770803,20.719319449270472 C25.58632384380178,20.618306265676722 25.06032286723928,20.536305533254847 24.53029357036428,20.477315054739222 C24.41029845317678,20.464314566457972 24.29030333598928,20.456318960989222 24.17030821880178,20.445302115286097 C23.56532775005178,20.388325796926722 22.96028624614553,20.352315054739222 22.35231505473928,20.352315054739222 C21.74434386333303,20.352315054739222 21.13930235942678,20.388325796926722 20.53633605083303,20.444325552786097 C20.41634093364553,20.455311880911097 20.29530821880178,20.463307486379847 20.17628966411428,20.476307974661097 C19.64632140239553,20.535328970754847 19.12032042583303,20.617329703176722 18.59731017192678,20.718312369192347 C18.40230284770803,20.755330191457972 18.20833312114553,20.797322378957972 18.01533995708303,20.840321646536097 C17.57033263286428,20.940327750051722 17.12831603130178,21.051320181692347 16.69130431255178,21.181325064504847 C16.42732726177053,21.259327994192347 16.16829405864553,21.349324332082972 15.909321890676779,21.437306509817347 C15.645344839895529,21.528309927786097 15.382344351614279,21.624318228567347 15.122334585989279,21.726307974661097 C14.715291128958029,21.884327994192347 14.317341910208029,22.057301627004847 13.924336539114279,22.241322623098597 C13.732319937551779,22.330311880911097 13.540303335989279,22.414326773489222 13.352315054739279,22.509327994192347 L13.352315054739279,22.509327994192347ZM4.352315054739279,40.35231505473922 C4.352315054739279,50.27730284770797 12.427327261770529,58.35231505473922 22.35231505473928,58.35231505473922 C32.27730284770803,58.35231505473922 40.35231505473928,50.27730284770797 40.35231505473928,40.35231505473922 C40.35231505473928,33.81532775005172 36.83730040630178,28.097310171926722 31.60933409770803,24.944325552786097 C30.68929015239553,24.390309439504847 29.72829161723928,23.923329459036097 28.73628722270803,23.543324576223597 C28.56032286723928,23.476307974661097 28.38429747661428,23.410328970754847 28.20534239848928,23.348317252004847 C27.93233214458303,23.253316031301722 27.65834532817678,23.161305533254847 27.38130675395803,23.080311880911097 C27.04134093364553,22.981312857473597 26.69630919536428,22.893300162161097 26.34828673442678,22.814320669973597 C26.09431944927053,22.756306753957972 25.83931456645803,22.705311880911097 25.58333312114553,22.658314810598597 C25.21431456645803,22.591328726614222 24.84230528911428,22.531300650442347 24.46529112895803,22.487324820364222 C24.29433165630178,22.467305289114222 24.12428771098928,22.449299918020472 23.95332823833303,22.433308707082972 C23.42433653911428,22.386311636770472 22.89229308208303,22.352315054739222 22.35231505473928,22.352315054739222 C21.81233702739553,22.352315054739222 21.28029357036428,22.386311636770472 20.75130187114553,22.433308707082972 C20.58034239848928,22.448323355520472 20.40932189067678,22.466328726614222 20.23933898052053,22.487324820364222 C19.86232482036428,22.531300650442347 19.49031554302053,22.591328726614222 19.12129698833303,22.658314810598597 C18.86531554302053,22.705311880911097 18.61031066020803,22.756306753957972 18.35634337505178,22.814320669973597 C18.00832091411428,22.893300162161097 17.66328917583303,22.981312857473597 17.32332335552053,23.080311880911097 C17.04628478130178,23.162312613332972 16.77229796489553,23.253316031301722 16.49928771098928,23.348317252004847 C16.32130919536428,23.410328970754847 16.14430724223928,23.476307974661097 15.968342886770529,23.543324576223597 C14.976338492239279,23.923329459036097 14.015339957083029,24.390309439504847 13.095296011770529,24.944325552786097 C7.867329703176779,28.097310171926722 4.352315054739279,33.81532775005172 4.352315054739279,40.35231505473922 L4.352315054739279,40.35231505473922Z"/>
    <mask id="mask-3" maskUnits="userSpaceOnUse" maskContentUnits="userSpaceOnUse">
      <rect opacity="1" x="0" y="0" width="44.70463010947856" height="62.704630109478444" fill="white"/>
      <use xlink:href="#path-2" fill="black"/>
    </mask>
  </defs>
  <g opacity="1">
    <g opacity="1">
      <use xlink:href="#path-0" fill="rgb(63,191,130)" fill-opacity="1"/>
      <use xlink:href="#path-0" fill-opacity="0" stroke="rgb(63,191,130)" stroke-opacity="1" stroke-width="1" stroke-linecap="butt" stroke-linejoin="miter" mask="url(#mask-1)"/>
    </g>
    <g opacity="1">
      <use xlink:href="#path-2" fill="rgb(63,191,130)" fill-opacity="1"/>
      <use xlink:href="#path-2" fill-opacity="0" stroke="rgb(63,191,130)" stroke-opacity="1" stroke-width="1" stroke-linecap="butt" stroke-linejoin="miter" mask="url(#mask-3)"/>
    </g>
  </g>
</svg>