<?xml version="1.0" encoding="utf-8"?>
<svg version="1.1" xmlns="http://www.w3.org/2000/svg" xmlns:xlink="http://www.w3.org/1999/xlink" height="119.00000000000006" width="120.00000000000006">
  <defs>
    <path id="path-0" opacity="1" fill-rule="evenodd" d="M89.68163564253832,81.93999851771771 L118.53061224489802,110.5485743931363 C120.48979591836739,112.46713692801345 120.48979591836739,115.62427978515638 118.53061224489802,117.54285714285724 C116.57142857142864,119.48571428571432 113.41223891900518,119.48571428571432 111.4530552455358,117.54285714285724 L82.60407864317605,88.95856846400669 C73.88571727519133,96.0500000000001 62.74286013233417,100.30000000000008 50.571428571428584,100.30000000000008 C22.628569933832924,100.30000000000008 0,77.83571428571433 0,50.15000000000007 C0,22.46428571428576 22.628569933832924,5.684341886080802e-14 50.571428571428584,5.684341886080802e-14 C78.48979591836735,5.684341886080802e-14 101.14285714285717,22.46428571428576 101.14285714285717,50.15000000000007 C101.14285714285717,62.22000296456476 96.83265904017863,73.29428274972106 89.68163564253832,81.93999851771771 L89.68163564253832,81.93999851771771ZM10.040816326530617,50.15000000000007 C10.040816326530617,72.29857439313624 28.212247887436245,90.31856994628906 50.571428571428584,90.31856994628906 C72.90612543845673,90.31856994628906 91.10204081632648,72.29857439313624 91.10204081632648,50.15000000000007 C91.10204081632648,28.001429312569815 72.90612543845673,9.957142857142912 50.571428571428584,9.957142857142912 C28.212247887436245,9.957142857142912 10.040816326530617,28.001429312569815 10.040816326530617,50.15000000000007 L10.040816326530617,50.15000000000007Z"/>
  </defs>
  <g opacity="1">
    <use xlink:href="#path-0" fill="rgb(63,191,130)" fill-opacity="1"/>
  </g>
</svg>