<?xml version="1.0" encoding="utf-8"?>
<svg version="1.1" xmlns="http://www.w3.org/2000/svg" xmlns:xlink="http://www.w3.org/1999/xlink" height="243.39199829101562" width="243.39199829101562">
  <defs>
    <path id="path-0" opacity="1" fill-rule="evenodd" d="M0,121.69598388671875 C0,54.4893798828125 54.4893798828125,0 121.69599914550781,0 C188.90261840820312,0 243.39199829101562,54.474365234375 243.39199829101562,121.69598388671875 C243.39199829101562,188.90261840820312 188.90261840820312,243.39199829101562 121.69599914550781,243.39199829101562 C54.4893798828125,243.39199829101562 0,188.90261840820312 0,121.69598388671875 L0,121.69598388671875ZM182.33082580566406,98.25411987304688 L182.23976135253906,94.375 C188.09597778320312,90.17660522460938 193.19207763671875,84.89785766601562 197.2078094482422,78.904541015625 C191.83798217773438,81.27743530273438 186.0423126220703,82.90524291992188 180.00296020507812,83.62033081054688 C186.19444274902344,79.90884399414062 190.9402618408203,74.037109375 193.1765594482422,67.03948974609375 C187.3809051513672,70.46221923828125 180.9612274169922,72.95672607421875 174.146240234375,74.31082153320312 C168.6703338623047,68.48464965820312 160.88156127929688,64.84921264648438 152.27162170410156,64.84921264648438 C135.72079467773438,64.84921264648438 122.30398559570312,78.26651000976562 122.30398559570312,94.80181884765625 C122.30398559570312,97.14422607421875 122.56219482421875,99.44107055664062 123.07962036132812,101.6318359375 C98.17755889892578,100.38433837890625 76.08977508544922,88.45822143554688 61.318878173828125,70.32562255859375 C58.74830627441406,74.752197265625 57.272621154785156,79.89382934570312 57.272621154785156,85.38525390625 C57.272621154785156,95.77511596679688 62.566383361816406,104.947998046875 70.59835052490234,110.31784057617188 C65.68489074707031,110.15020751953125 61.07568359375,108.81161499023438 57.029422760009766,106.560302734375 C57.029422760009766,121.45278930664062 67.35824584960938,133.5460205078125 81.06427764892578,136.31475830078125 C78.55426025390625,136.99932861328125 75.90762329101562,137.34909057617188 73.16941833496094,137.34909057617188 C71.22235107421875,137.34909057617188 69.36636352539062,137.18145751953125 67.52587890625,136.8316650390625 C71.34394836425781,148.72726440429688 82.40335845947266,157.39825439453125 95.51591491699219,157.64141845703125 C85.2631607055664,165.67340087890625 72.34825897216797,170.46527099609375 58.30745315551758,170.46527099609375 C55.88850402832031,170.46527099609375 53.50058364868164,170.31314086914062 51.15769577026367,170.0394287109375 C64.42237854003906,178.54327392578125 80.16705322265625,183.50225830078125 97.08267974853516,183.50225830078125 C152.19606018066406,183.50225830078125 182.33082580566406,137.86602783203125 182.33082580566406,98.25411987304688 L182.33082580566406,98.25411987304688Z"/>
  </defs>
  <g opacity="1">
    <g opacity="1">
      <use xlink:href="#path-0" fill="rgb(255,255,255)" fill-opacity="1"/>
    </g>
  </g>
</svg>