<?xml version="1.0" encoding="utf-8"?>
<svg version="1.1" xmlns="http://www.w3.org/2000/svg" xmlns:xlink="http://www.w3.org/1999/xlink" height="99" width="99">
  <defs>
    <path id="path-0" opacity="1" fill-rule="evenodd" d="M65.69171142578125,52.199676513671875 C72.6932373046875,54.61572265625 79.1104736328125,58.606842041015625 84.50189208984375,63.998077392578125 C93.85101318359375,73.34759521484375 99,85.778076171875 99,99 L91.265625,99 C91.265625,75.9703369140625 72.5296630859375,57.234375 49.5,57.234375 C26.4703369140625,57.234375 7.734375,75.9703369140625 7.734375,99 L0,99 C0,85.778076171875 5.14898681640625,73.34759521484375 14.498291015625,63.998077392578125 C19.88970947265625,58.606842041015625 26.30694580078125,54.61572265625 33.3084716796875,52.199676513671875 C25.80938720703125,47.03485107421875 20.8828125,38.39111328125 20.8828125,28.6171875 C20.8828125,12.83770751953125 33.72052001953125,0 49.5,0 C65.27947998046875,0 78.1171875,12.83770751953125 78.1171875,28.6171875 C78.1171875,38.39111328125 73.1905517578125,47.03485107421875 65.69171142578125,52.199676513671875 L65.69171142578125,52.199676513671875ZM28.6171875,28.6171875 C28.6171875,40.13214111328125 37.9852294921875,49.5 49.5,49.5 C61.0147705078125,49.5 70.3828125,40.13214111328125 70.3828125,28.6171875 C70.3828125,17.102264404296875 61.0147705078125,7.734375 49.5,7.734375 C37.9852294921875,7.734375 28.6171875,17.102264404296875 28.6171875,28.6171875 L28.6171875,28.6171875Z"/>
  </defs>
  <g opacity="1">
    <g opacity="1">
      <use xlink:href="#path-0" fill="rgb(63,191,130)" fill-opacity="1"/>
    </g>
  </g>
</svg>